<svg width="40" height="40" viewBox="0 0 40 40" fill="none" xmlns="http://www.w3.org/2000/svg">
  <path d="M17.0435 5.0332L11.3125 5.29825L11.863 17.201L17.5939 16.9359L17.0435 5.0332Z" fill="black"/>
  <path d="M31.5576 9.83063L28.4626 5L18.4297 11.4281L21.5248 16.2588L31.5576 9.83063Z" fill="black"/>
  <path d="M34.6614 24.7979L37.2974 19.7022L26.714 14.2275L24.0781 19.3232L34.6614 24.7979Z" fill="black"/>
  <path d="M23.2536 34.9666L28.9845 34.7016L28.434 22.7988L22.7031 23.0639L23.2536 34.9666Z" fill="black"/>
  <path d="M8.73438 30.1693L11.8294 34.9999L21.8623 28.5718L18.7673 23.7412L8.73438 30.1693Z" fill="black"/>
  <path d="M5.63594 15.2021L3 20.2978L13.5833 25.7725L16.2192 20.6768L5.63594 15.2021Z" fill="black"/>
</svg>
