<svg xmlns="http://www.w3.org/2000/svg" width="40" height="40" viewBox="0 0 40 40" fill="none"><metadata><rdf:RDF xmlns:rdf="http://www.w3.org/1999/02/22-rdf-syntax-ns#" xmlns:dc="http://purl.org/dc/elements/1.1/"><rdf:Description><dc:creator>RealFaviconGenerator</dc:creator><dc:source>https://realfavicongenerator.net</dc:source></rdf:Description></rdf:RDF></metadata><g clip-path="url(#clip0_70_4425)">
<rect width="40" height="40" rx="20" fill="white"></rect>
<path d="M16.8988 5.03288L11.1678 5.29793L11.7183 17.2007L17.4492 16.9356L16.8988 5.03288Z" fill="black"></path>
<path d="M31.4113 9.83063L28.3163 5L18.2834 11.4281L21.3785 16.2588L31.4113 9.83063Z" fill="black"></path>
<path d="M34.5126 24.7978L37.1486 19.7021L26.5652 14.2274L23.9293 19.3231L34.5126 24.7978Z" fill="black"></path>
<path d="M23.1014 34.9671L28.8323 34.7021L28.2818 22.7993L22.5509 23.0644L23.1014 34.9671Z" fill="black"></path>
<path d="M8.58881 30.1694L11.6838 35L21.7167 28.5719L18.6217 23.7413L8.58881 30.1694Z" fill="black"></path>
<path d="M5.4875 15.2022L2.85156 20.2979L13.4349 25.7726L16.0708 20.6769L5.4875 15.2022Z" fill="black"></path>
</g><defs>
<clipPath id="clip0_70_4425">
<rect width="40" height="40" rx="20" fill="white"></rect>
</clipPath>
</defs></svg>